<?xml version="1.0" encoding="UTF-8"?> <svg xmlns="http://www.w3.org/2000/svg" id="Layer_2" data-name="Layer 2" viewBox="0 0 87.92 74.93"><defs><style> .cls-1 { fill: #f3ede6; } </style></defs><g id="Layer_1-2" data-name="Layer 1"><g><path class="cls-1" d="m11.4,37.43c-1.17-.82-2.24-1.63-3.22-2.57-1.32-1.27-2.35-2.73-3.02-4.44-.52-1.33-.18-1.96,1.23-2.26,1.26-.27,2.39.04,3.46.72.14.09.24.26.51.25-1.79-2.18-3.29-4.48-4.08-7.18.22.46.44.92.67,1.37,1.4,2.71,3.39,4.97,5.54,7.1.94.93,1.9,1.86,2.88,2.76,2.37,2.16,4.42,4.61,6.52,7.01.06.06.16.12.11.25-.21-.03-.33-.2-.47-.31-3.14-2.46-6.12-5.11-9.34-7.46-.93-.68-1.72-1.52-2.6-2.27-.78-.67-1.66-1.06-2.73-.93-.45.06-.56.17-.38.63.71,1.75,1.85,3.18,3.26,4.41.52.46,1.06.9,1.62,1.31,3.06,2.24,6.12,4.46,9.18,6.69.25.18.5.21.78.22,3.16.15,6.2-.44,9.29-1.09,7.98-1.67,14.98.35,20.18,6.76,6.66,8.21,1.98,18.3-6.49,21.22-.84.29-1.69.53-2.6.53.33-.09.66-.18.98-.28,5.1-1.7,8.64-4.96,9.88-10.31.85-3.69-.16-7.05-2.44-10-3.12-4.04-7.36-6.17-12.33-6.94-2.71-.42-5.38-.2-8.01.52-3.2.88-6.46.92-9.74.61-4.85-.47-9.69-1.15-14.59-1-1.58.05-3.16.17-4.74.31,6.53-1.46,13.11-.85,19.71-.34-.09-.27-.3-.26-.45-.32-2.71-1.03-5.34-2.22-7.88-3.62-1.41-.78-2.9-1.38-4.55-1.45-.63-.03-1.27,0-1.99.22,1.54,1.69,3.32,2.98,5.27,4.33-1.37-.34-2.38-1.02-3.4-1.7-.93-.62-1.7-1.43-2.46-2.24-.46-.49-.4-.68.23-.89,1.9-.6,3.76-.43,5.6.24.15.05.3.11.44.17.02,0,.04,0,.17-.02Z"></path><path class="cls-1" d="m85.22,39.04c-.47-1.05-.47-2.16-.24-3.25.33-1.57.66-3.13.66-4.76,0-8.85-4.65-15.74-12.87-19.01-2.99-1.19-6.07-1.93-9.3-2.03-7.85-.24-16.18,4.98-18.32,14.28-.84,3.64-.99,7.3-.39,10.98.08.51-.01.89-.45,1.17-.33.21-.65.44-1.01.69.3.21.63.26.94.36.26.08.49.19.53.49.05.3-.14.48-.37.63-.26.17-.54.33-.85.51.45.23.91.17,1.34.24.61.1.76.4.45.95-.19.33-.47.57-.8.84.14.04.21.08.28.08,1.23-.1,1.99.6,2.75,1.45,1.12,1.26,2.35,2.42,3.51,3.64.26.28.42.29.71.02,1.26-1.18,2.54-2.34,3.83-3.48.26-.23.28-.48.26-.79-.1-1.96.56-3.66,1.8-5.15.26-.31.55-.57.9-.76.75-.4,1.3-.12,1.39.72.07.69-.02,1.39-.08,2.08-.01.16-.03.31-.05.58.45-.4.65-.87.95-1.26.18-.24.3-.64.69-.56.37.08.38.47.46.77.64,2.28,2.03,3.53,4.33,3.83-.55-.89-.93-1.81-.97-2.84.26,1.12.66,2.17,1.53,3.18-1.41-.16-2.54-.58-3.57-1.27-1.1-.74-1.52-1.89-1.79-3.14-.28.11-.34.33-.44.5-.41.68-.86,1.33-1.39,1.93-.14.15-.26.4-.53.25-.25-.14-.09-.35-.04-.53.29-1.06.35-2.15.32-3.24,0-.19.04-.43-.19-.52-.21-.07-.38.08-.52.22-1.52,1.46-2.24,3.25-2.02,5.36.05.47-.04.77-.39,1.08-1.42,1.3-2.8,2.64-4.23,3.93-.35.32-.31.52-.08.87,1.21,1.82,2.77,3.25,4.63,4.37.16.1.37.14.46.35-2.13-.05-4.48-1.91-5.24-4.17-.17-.51-.37-.92-.83-1.31-1.22-1.04-2.31-2.23-3.46-3.36-.01-.01-.03-.03-.04-.04-.88-1.18-1.94-1.95-3.53-1.85-.64.04-1.28-.26-1.83-.63-.24-.16-.45-.35-.32-.68.12-.3.36-.32.64-.29.46.05.93.11,1.44-.21-1.23-.19-2.35-.42-3.43-.8-.36-.13-.85-.2-.7-.76.14-.51.56-.37.94-.32.69.08,1.37.09,2.13-.21-.71-.35-1.35-.65-1.92-1.06-.32-.23-.56-.49-.34-.89.21-.37.53-.29.88-.12.63.3,1.6.07,2.09-.44.25-.26.09-.53.05-.79-.44-3.31-.41-6.61.28-9.88,1.63-7.77,6.23-12.92,13.81-15.27,3.81-1.18,7.69-.88,11.51.16,3.65,1,7.07,2.48,9.98,4.97,3.94,3.37,6.07,7.71,6.7,12.81.32,2.6.24,5.18-.54,7.72-.36,1.19-.4,2.42-.08,3.65Z"></path><path class="cls-1" d="m9.69,48.92c-3.33-.98-6.68-1.87-9.69-3.76.26-.09.39.07.53.15,2.88,1.5,5.99,2.29,9.16,2.87,4.45.82,8.87,1.75,13.27,2.76.11.03.22.08.32.17-.97-.04-1.94-.08-2.91-.13-.97-.05-1.94-.11-2.9-.24-2.99-.4-5.97-.88-9-.78-1.21.04-2.41.18-3.59.49-.28.07-.68.14-.74.43-.07.33.32.51.57.69.97.7,2.13.82,3.26,1.03,4.18.75,8.4.84,12.63.86,1.29,0,2.57,0,3.86,0,0,.05,0,.11.01.16-1.41.33-2.83.62-4.23.99-2.35.62-4.78.75-7.15,1.18-1.36.25-2.66.64-3.79,1.48-.15.12-.35.2-.44.49.66.07,1.3.15,1.95.2,2.86.22,5.71-.08,8.55-.31,1.98-.16,3.95-.28,5.94-.42,0,.05,0,.09-.02.1-1.96.56-3.89,1.25-5.9,1.6-1.34.23-2.72.25-4.06.55-.6.13-1.2.29-1.7.67-.48.36-.45.6.11.82.95.37,1.97.45,2.97.54,2.12.19,4.24.13,6.36.22.75.03,1.47.22,2.34.39-1.44.42-2.77.48-4.08.69-.47.08-.94.17-1.36.42-.47.28-.48.62-.01.91.77.47,1.64.7,2.49.95,2.03.6,4.12.99,6.17,1.56-1.18-.21-2.37-.4-3.55-.62-1.52-.28-3.03-.6-4.5-1.09-.21-.07-.41-.15-.61-.25-.43-.2-.83-.43-.86-.97-.03-.53.32-.82.74-1.05.05-.03.09-.07.25-.2-.33,0-.55,0-.77,0-1.75,0-3.49,0-5.21-.37-.33-.07-.65-.17-.96-.31-.96-.45-1.16-1.22-.54-2.08.07-.09.14-.18.27-.34-1.25-.05-2.41-.1-3.57-.14-.64-.02-1.27-.09-1.86-.35-.65-.29-.77-.76-.33-1.33,1.04-1.37,2.44-2.18,4.04-2.69.34-.11.68-.2,1.03-.38-.89-.12-1.78-.21-2.67-.35-1.47-.23-2.94-.44-4.35-.96-.7-.26-1.33-.64-1.82-1.2-.76-.87-.59-1.84.44-2.36,1.05-.53,2.21-.62,3.36-.7.84-.06,1.69-.01,2.53-.01Z"></path><path class="cls-1" d="m58.36,52.5c.62-.09.84-1.04,1.33-1.77.38-.57.85-1.08,1.62-1.4-.75.93-1.43,1.76-2.18,2.69,2.71-.51,4.81.68,6.87,1.99,1.1.7,2.18,1.45,3.24,2.21,1.19.86,2.42.87,3.71.28,1.09-.5,2.06-1.19,2.9-2.04.27-.28.41-.25.62.05.25.37.55.71.87,1.03,0-.71-.19-1.36-.41-2-.24-.72-.4-1.39.18-2.07.3-.35.19-.87.23-1.33.02-.27-.02-.6.31-.71.34-.12.55.15.75.37.35.41.56.91.83,1.42.34-.38.52-.79.72-1.19.41-.79.79-1.6,1.22-2.38.23-.43.48-.95,1.05-.94.62.01.71.6.92,1.1.54-.54,1.15-.86,1.85-.42.73.47.65,1.2.46,1.92,1.34-.18,1.8.38,1.48,1.79-.08.35-.13.5.31.64.54.17.35.81.51,1.23.07.18-.02.43-.06.64-.06.28-.2.51.12.78.26.22.1.6-.02.89-.33.79-.83,1.49-1.34,2.17-.5.67-1.04,1.3-1.62,1.9-.42.43-.86.81-1.46.98-.68.19-1.04.66-1.12,1.37-.08.7-.07,1.33.27,2.01.66,1.31,1.15,2.69,1.28,4.18.07.76-.11,1.36-.73,1.88-1.42,1.19-2.88,2.31-4.53,3.15-1.84.94-3.73,1.22-5.76.69-2.02-.53-4.01-1.15-5.88-2.07-1.18-.58-2.34-.63-3.58-.45-2.52.36-4.97,1.01-7.42,1.67-.24.07-.47.21-.84.13,2.05-.83,4.04-1.54,6.08-2.1,1.32-.36,2.65-.69,4.03-.72.5-.01.98.08,1.44.28,2.25.94,4.57,1.67,6.98,2.14,1.26.24,2.44.05,3.59-.45,1.86-.81,3.45-2.02,4.95-3.36.26-.23.28-.5.24-.8-.19-1.69-.88-3.21-1.63-4.69-1.26-2.48-2.81-4.78-4.43-7.04-.23-.33-.38-.27-.65-.07-.71.54-1.49.98-2.33,1.3-1.58.61-3.06.51-4.44-.53-1.32-.99-2.64-1.96-3.98-2.92-.37-.27-.76-.5-1.17-.71-1.84-.98-3.72-1.61-5.35-.72Zm27.73,2.49c-.35.18-.48.55-.71.83-.85,1.01-1.7,2.03-3.03,2.46-.29.09-.35.35-.43.59-.22.61-.41,1.23-.73,1.8.08-.8.4-1.53.63-2.28.06-.2.22-.33.42-.4.62-.2,1.11-.61,1.55-1.07,1.19-1.24,2.07-2.7,2.85-4.22.06-.13.21-.28.06-.43-.13-.12-.31-.08-.45-.02-.41.17-.81.37-1.36.63.51-.66,1.07-1.08,1.25-1.75.1-.36.27-.83-.05-1.05-.28-.2-.59.2-.85.39-.68.49-1.22,1.14-1.82,1.72,0-.12.02-.21.06-.3.39-.95.78-1.91,1.16-2.86.12-.32.25-.7-.12-.91-.39-.22-.6.14-.8.42-.44.62-.76,1.3-1.11,1.96-.18.35-.31.73-.62,1.06.1-1.34.54-2.61.24-3.96-.34.19-.44.48-.58.73-.45.81-.88,1.64-1.33,2.46-.24.43-.5.85-.87,1.2-.32.31-.51.34-.66-.17-.19-.62-.42-1.25-.94-1.86-.09.71-.03,1.36-.46,1.81-.4.43-.41.87-.29,1.37.2.83.43,1.65.41,2.51,0,.2.13.32.23.47,1.09,1.44,2.12,2.92,3.07,4.45.08.13.12.31.32.31.03.45.35.76.6,1.16-.18-1.38.54-2.11,1.7-2.54.12-.05.24-.14.33-.24,1.19-1.25,2.31-2.56,3.25-4.01.07-.1.19-.21.12-.36-.37-.14-.66.4-1.04.09.76-.58,1.38-1.25,1.34-2.32-.44.78-.88,1.56-1.33,2.33Z"></path><path class="cls-1" d="m78.21,26.35c-1.95,5.06-4.22,9.83-9.73,11.95,4.68-2.29,6.79-6.54,8.43-11.15.78-2.19,1.2-4.48,1.56-6.77.02-.15,0-.32.13-.44.95,5.22,1.63,10.2-2.74,16.97.72-.24,2.48-1.78,3.89-3.37,1.17-1.31,2.07-2.8,3.1-4.23-.22.76-.43,1.52-.65,2.28-.5,1.72-.92,3.45-.99,5.24-.02.46,0,.91.07,1.36.21,1.35.76,2.44,2.15,2.92-1.25-.21-1.95-1.03-2.34-2.17-.41-1.23-.42-2.49-.3-3.77.05-.55.13-1.1.15-1.69-2.54,3.38-5.85,5.66-9.86,6.99,3.1-2.63,5.33-5.84,6.47-9.76.41-1.43.66-2.88.66-4.38Z"></path><path class="cls-1" d="m41.75,41.64c-2.48-1.89-5.25-3.23-8.09-4.39-4.34-1.78-8.24-4.2-11.84-7.19-3.19-2.65-6.41-5.26-9.92-7.49-1.1-.7-2.22-1.36-3.36-1.99.86.19,1.65.54,2.44.89,3.87,1.72,7.28,4.18,10.64,6.72,2.86,2.16,5.58,4.52,8.8,6.17,1.69.87,3.38,1.75,5.06,2.65,2.07,1.11,4.03,2.37,5.71,4.04.2.19.38.4.57.6Z"></path><path class="cls-1" d="m46.96,4.5c2.02-1.09,4.17-1.88,6.38-2.53C57.23.81,61.17-.04,65.26,0c1.21.01,2.42.12,3.57.56,1.81.7,2.13,2.1.8,3.52-.81.86-1.82,1.46-2.87,1.99-3.42,1.71-7.08,2.65-10.82,3.3-2.92.51-5.85.82-8.82.66,1.16-.02,2.32-.07,3.48-.22,1.16-.15,2.32-.31,3.46-.55,4.23-.87,8.33-2.13,12.17-4.15.74-.39,1.46-.82,2.08-1.37.44-.39,1.06-.77.9-1.43-.16-.65-.89-.73-1.45-.88-1.1-.29-2.23-.38-3.36-.36-5.92.07-11.67,1.08-17.18,3.32-.09.04-.18.07-.26.1Z"></path><path class="cls-1" d="m27.94,67.12c-.43.47-.97.82-1.36,1.32-.46.6-.37.9.33,1.22.62.28,1.19.16,1.78-.09,1.46-.61,2.91-1.22,4.41-1.85-.05.24-.23.31-.34.42-1.14,1.05-2.35,2.01-3.42,3.13-.43.44-.83.91-1.1,1.47-.24.52-.08.83.49.93.47.08.9-.04,1.33-.21,1-.4,1.89-1,2.77-1.61.49-.34.97-.68,1.49-1.05-.73,1.55-3.5,3.8-4.99,4.07-.91.17-1.72-.03-2.27-.8-.53-.74-.29-1.5.1-2.24.14-.28.52-.52.42-.79-.06-.17-.52-.2-.78-.31-.37-.15-.71-.36-.97-.67-.43-.51-.48-1.11-.07-1.63.56-.71,1.35-1.04,2.18-1.3Z"></path><path class="cls-1" d="m62.53,50.03c1.22,1.03,2.48,1.93,4.07,2.27,2.98.64,5.71.2,8.1-1.8.78-.66.78-.66.29-1.54.09,0,.16-.02.23-.01,1.1.07,1.29-.13.98-1.15-.11-.36-.04-.53.27-.71.37-.22.88-.39,1.02-.77.15-.39-.33-.71-.51-1.08-.45-.91-.37-1.55.36-2.26.77-.76,1.67-1.38,2.39-2.2-.32.55-.76.98-1.2,1.41-.28.28-.58.54-.86.82-.81.8-.86,1.35-.24,2.31.06.1.13.2.2.29.46.67.43.83-.21,1.31-.06.05-.12.11-.19.14-.55.23-.7.6-.5,1.16.18.52.05.93-.57,1.05-.19.04-.35.11-.16.35.14.18-.03.29-.13.4-3.54,3.99-10.12,3.79-13.22.14-.03-.04-.05-.09-.07-.14Z"></path><path class="cls-1" d="m34.88,70.73c-.08.53-.13.98-.09,1.43.07.76.45,1,1.12.63,1.21-.67,2.4-1.39,3.6-2.08.13-.08.27-.13.44-.15-.91,1.7-2.14,3.09-4.04,3.66-1.27.38-2.28-.72-1.97-2.02.13-.57.39-1.06.94-1.48Z"></path><path class="cls-1" d="m73.9,42.8c.72.31,1.18.73,1.56,1.24.09.12.41.28.13.46-.25.15-.54.49-.88.11-.43-.49-.62-1.08-.81-1.81Z"></path></g></g></svg> 